<?xml version="1.0" encoding="utf-8"?>
<!-- Generator: Adobe Illustrator 25.4.1, SVG Export Plug-In . SVG Version: 6.00 Build 0)  -->
<svg version="1.1" id="Layer_1" xmlns="http://www.w3.org/2000/svg" xmlns:xlink="http://www.w3.org/1999/xlink" x="0px" y="0px"
	 viewBox="0 0 615.2 615.2" enable-background="new 0 0 615.2 615.2" xml:space="preserve">
<g>
	<linearGradient id="SVGID_1_" gradientUnits="userSpaceOnUse" x1="126.1843" y1="243.4355" x2="210.6199" y2="410.5352">
		<stop  offset="0" style="stop-color:#3D6F36"/>
		<stop  offset="3.831141e-03" style="stop-color:#3D7036"/>
		<stop  offset="0.1167" style="stop-color:#44833F"/>
		<stop  offset="0.2325" style="stop-color:#498E44"/>
		<stop  offset="0.3549" style="stop-color:#4A9246"/>
		<stop  offset="0.75" style="stop-color:#2B7E48"/>
		<stop  offset="1" style="stop-color:#1E623C"/>
	</linearGradient>
	<path fill="url(#SVGID_1_)" d="M206.31,391.14c-44.46,0-80.5-36.63-80.5-81.82c0-45.19,36.04-81.82,80.5-81.82
		c17.24,0,33.21,5.51,46.31,14.89c-16.5-14.77-36.37-22.99-54.41-24.42c-21.5-1.7-50.4,3.8-76.3,22.9s-42.37,46.53-50.8,74.93
		c-8.43,28.4-7.2,52.57,0,69.67c1.1,2.62,2.49,5.19,4.14,7.68c2.13,3.23,4.72,6.33,7.71,9.25c9.84,9.6,24.15,17.22,41.74,20.66
		c27.1,5.3,48.7,6.2,83.63-8.33c23.45-9.75,41.12-27.89,53.14-45.85C247.07,382.68,227.67,391.14,206.31,391.14z"/>
	
		<linearGradient id="SVGID_00000072263961400778250870000003776768394806300857_" gradientUnits="userSpaceOnUse" x1="230.2858" y1="210.8947" x2="48.8456" y2="354.3187">
		<stop  offset="0" style="stop-color:#A5D57C"/>
		<stop  offset="0.5" style="stop-color:#94C876"/>
		<stop  offset="1" style="stop-color:#4E995B"/>
	</linearGradient>
	<path fill="url(#SVGID_00000072263961400778250870000003776768394806300857_)" d="M204.71,216.46
		c-31.2-4.88-60.77,3.08-90.77,26.68s-43.9,60.33-48.7,85.73c-5.13,27.1,0.52,50.71,10.01,64.29c0,0,0,0,0,0
		c-1.65-2.5-3.04-5.07-4.14-7.68c-7.2-17.1-8.43-41.27,0-69.67c8.43-28.4,24.9-55.83,50.8-74.93s54.8-24.6,76.3-22.9
		c18.04,1.43,37.91,9.64,54.41,24.42c0.63,0.45,1.26,0.91,1.88,1.38C251.61,240.51,233.28,220.93,204.71,216.46z"/>
	
		<linearGradient id="SVGID_00000083782056404584327860000002388303857588411550_" gradientUnits="userSpaceOnUse" x1="374.4072" y1="218.3863" x2="116.9352" y2="438.7065">
		<stop  offset="0" style="stop-color:#BBDA85"/>
		<stop  offset="0.5" style="stop-color:#93C979"/>
		<stop  offset="1" style="stop-color:#3F9259"/>
	</linearGradient>
	<path fill="url(#SVGID_00000083782056404584327860000002388303857588411550_)" d="M325.41,205.98c-13,22.2-20,43.9-28,70.1
		c-8,26.2-12.8,44.8-22.6,68.2c-3.16,7.55-7.61,16.06-13.33,24.61c-12.02,17.96-29.69,36.1-53.14,45.85
		c-34.93,14.53-56.53,13.63-83.63,8.33c-17.6-3.44-31.9-11.06-41.74-20.66v0c6.94,10.76,31.11,26.86,72.31,27.39
		c41.2,0.53,71.03-19.53,85.63-31.83c14.6-12.3,29.83-36.17,38.1-55.5c8.27-19.33,15.07-47.47,19.6-61.33
		c3.31-10.13,13.74-57.83,43.14-98.14C335.31,190.51,329.91,198.3,325.41,205.98z"/>
	
		<linearGradient id="SVGID_00000010299210300569444350000010425127758455280776_" gradientUnits="userSpaceOnUse" x1="348.5006" y1="128.8634" x2="146.3245" y2="401.0233">
		<stop  offset="0" style="stop-color:#B4D968"/>
		<stop  offset="0.4391" style="stop-color:#95C758"/>
		<stop  offset="0.75" style="stop-color:#66AB55"/>
		<stop  offset="1" style="stop-color:#3A9152"/>
	</linearGradient>
	<path fill="url(#SVGID_00000010299210300569444350000010425127758455280776_)" d="M465.41,132.14c-15.3,0-44-0.07-75.2,14.2
		c-20.41,9.33-36.28,22.47-48.46,36.66c-29.4,40.31-39.83,88.01-43.14,98.14c-4.53,13.87-11.33,42-19.6,61.33
		c-8.27,19.33-23.5,43.2-38.1,55.5c-14.6,12.3-44.43,32.37-85.63,31.83c-41.2-0.53-65.37-16.63-72.31-27.39v0
		c-3-2.92-5.58-6.03-7.71-9.25c0,0,0,0,0,0c-9.49-13.58-15.14-37.19-10.01-64.29c4.81-25.4,18.7-62.13,48.7-85.73
		s59.57-31.57,90.77-26.68c28.57,4.47,46.9,24.05,49.79,27.32c4.65,3.54,8.91,7.58,12.71,12.03c4.72-17.79,10.02-33.48,16.58-47.91
		c-5.02-3.83-26.55-19.83-44.18-26.23c-20.1-7.3-46.2-13.73-87-3.2c-36.31,9.38-82.13,41.99-100.14,101.13
		c-1.15,8.89-1.73,18-1.73,27.27c0,56.52,25.75,107.05,65.04,139.09c19.61,7.13,48.18,15.34,73.74,14.34
		c7.72-0.3,15.17-1.43,22.02-3.7c44.4-14.69,70.68-42.2,86.93-78.53c10.03-22.41,21.04-39.36,32.86-52.2
		c3.01-10.81,16.78-59.87,23.41-77.27c7.47-19.6,36-90.55,126.33-109.34c0,0,0,0,0,0c6.07-1.58,11.2-2.65,15-3.46
		c17.27-3.67,45.63-3.67,45.63-3.67C519.97,132.14,476.73,132.14,465.41,132.14z"/>
	
		<linearGradient id="SVGID_00000139985304383874783530000001694442395362680467_" gradientUnits="userSpaceOnUse" x1="323.4207" y1="315.9776" x2="451.6767" y2="142.0256">
		<stop  offset="0" style="stop-color:#81B262"/>
		<stop  offset="1" style="stop-color:#A7D66A"/>
	</linearGradient>
	<path fill="url(#SVGID_00000139985304383874783530000001694442395362680467_)" d="M354.74,248.61
		c-6.63,17.4-20.39,66.45-23.41,77.27c1.45-1.58,2.92-3.09,4.39-4.55c2.6-9.32,6.09-21.44,10.21-34.72
		c8.73-28.15,15.33-62.8,51.73-100.4c28.39-29.33,61.86-41.34,83.4-46.94c0,0,0,0,0,0C390.74,158.06,362.21,229.01,354.74,248.61z"
		/>
	
		<linearGradient id="SVGID_00000021828308798358805200000011313772786303661484_" gradientUnits="userSpaceOnUse" x1="302.7591" y1="150.9259" x2="53.927" y2="226.094">
		<stop  offset="0" style="stop-color:#C7E19C"/>
		<stop  offset="0.4" style="stop-color:#BDDF83"/>
		<stop  offset="1" style="stop-color:#62A659"/>
	</linearGradient>
	<path fill="url(#SVGID_00000021828308798358805200000011313772786303661484_)" d="M152.61,178.48c40.8-10.53,66.9-4.1,87,3.2
		c17.63,6.4,39.16,22.4,44.18,26.23c6.87-15.1,15.15-28.8,25.67-42.02c-26.86-20.68-59.71-33.01-95.38-33.01
		c-36.13,0-69.2,9.53-95.97,30c-37.51,28.68-59.57,69.72-65.64,116.73C70.48,220.46,116.3,187.85,152.61,178.48z"/>
	
		<linearGradient id="SVGID_00000121243186944364366230000007917491122023472531_" gradientUnits="userSpaceOnUse" x1="475.3725" y1="268.416" x2="188.5245" y2="442.368">
		<stop  offset="0" style="stop-color:#BCDA8B"/>
		<stop  offset="0.5" style="stop-color:#9ACB6D"/>
		<stop  offset="1" style="stop-color:#389054"/>
	</linearGradient>
	<path fill="url(#SVGID_00000121243186944364366230000007917491122023472531_)" d="M428.88,285.81c-11.03,0-20.07,0.56-27.96,1.71
		c-17.77,2.61-29.61,8.29-44.71,17.62c-7.05,4.36-13.88,9.68-20.48,16.19c-1.48,1.46-2.94,2.97-4.39,4.55
		c-11.82,12.84-22.83,29.79-32.86,52.2c-16.26,36.33-42.53,63.84-86.93,78.53c-6.84,2.26-14.29,3.4-22.02,3.7c0.01,0,0.01,0,0.02,0
		c26.56,0.46,61.86-16.24,82.66-37.17c20.8-20.93,28.4-46,41.47-67.33c13.07-21.33,26.13-36.83,49.33-50.53
		c23.2-13.7,46-16.47,66.6-16.47c13.87,0,32.38,0,43.01,0c5.09-1.18,10.53-2.19,16.36-3H428.88z"/>
	
		<linearGradient id="SVGID_00000162336166891865570190000006745957950462200752_" gradientUnits="userSpaceOnUse" x1="425.3484" y1="161.1658" x2="452.1323" y2="292.4939">
		<stop  offset="0" style="stop-color:#7CB749"/>
		<stop  offset="0.5" style="stop-color:#5AA14C"/>
		<stop  offset="0.6706" style="stop-color:#488E45"/>
		<stop  offset="1" style="stop-color:#286E39"/>
	</linearGradient>
	<path fill="url(#SVGID_00000162336166891865570190000006745957950462200752_)" d="M496.08,135.81c-3.8,0.81-8.93,1.88-15,3.46
		c-21.54,5.6-55,17.61-83.4,46.94c-36.4,37.6-43,72.25-51.73,100.4c-4.12,13.28-7.61,25.41-10.21,34.72
		c6.6-6.51,13.43-11.83,20.48-16.19c15.1-9.33,26.94-15.01,44.71-17.62c3.42-14.8,9.24-37.89,16.08-56.15
		c0.43-1.15,0.87-2.29,1.31-3.4c11.6-29.3,28.6-61.5,56.8-78.2c28.2-16.7,49.4-17.2,66.6-17.63
		C541.71,132.14,513.34,132.14,496.08,135.81z"/>
	
		<radialGradient id="SVGID_00000155867606718307046410000006008072678501463969_" cx="557.3311" cy="174.0283" r="171.1116" gradientTransform="matrix(-0.6675 0.7446 -0.5724 -0.5131 1028.9402 -151.6974)" gradientUnits="userSpaceOnUse">
		<stop  offset="0" style="stop-color:#579E46"/>
		<stop  offset="0.4061" style="stop-color:#3E8944"/>
		<stop  offset="0.5" style="stop-color:#378443"/>
		<stop  offset="1" style="stop-color:#0F4B2E"/>
	</radialGradient>
	<path fill="url(#SVGID_00000155867606718307046410000006008072678501463969_)" d="M564.33,134.67c-0.07-1.42-1.25-2.53-2.68-2.53
		h-7.31c0,0-4.99,0-12.63,0c-17.2,0.43-38.4,0.93-66.6,17.63c-28.2,16.7-45.2,48.9-56.8,78.2c-0.44,1.11-0.88,2.25-1.31,3.4
		c11.19,0,42.63,0,60.01,0c22.07,0,60.67-8.97,80.2-53.9C564.82,159.97,564.68,141.32,564.33,134.67z"/>
	
		<linearGradient id="SVGID_00000107554959973850282540000008714336736381179058_" gradientUnits="userSpaceOnUse" x1="424.1367" y1="293.3582" x2="177.8967" y2="466.1581">
		<stop  offset="0" style="stop-color:#A4CF5B"/>
		<stop  offset="0.0275" style="stop-color:#A0CD5B"/>
		<stop  offset="0.4881" style="stop-color:#61A654"/>
		<stop  offset="0.8249" style="stop-color:#3A8E50"/>
		<stop  offset="1" style="stop-color:#2B854F"/>
	</linearGradient>
	<path fill="url(#SVGID_00000107554959973850282540000008714336736381179058_)" d="M429.61,288.81c-20.6,0-43.4,2.77-66.6,16.47
		c-23.2,13.7-36.27,29.2-49.33,50.53c-13.07,21.33-20.67,46.4-41.47,67.33c-20.8,20.93-56.1,37.63-82.66,37.17
		c-0.01,0-0.01,0-0.02,0c-25.56,1-54.13-7.21-73.74-14.34c24.07,19.62,53.21,32.3,84.65,35.17c4.5,0.41,9.05,0.63,13.64,0.63
		c24.73-1.2,39.17-8.32,40.8-9.03c26.64-11.62,42.93-29.47,52.53-40.27c11.99-13.49,29.4-37.6,48.3-49.1
		c8.37-5.09,16.64-7.99,24.88-9.63c1.16-3.27,2.32-6.34,3.62-9.17c7.2-15.7,16-33.83,37.07-51.17
		c12.98-10.68,28.78-19.37,51.34-24.6C461.99,288.81,443.48,288.81,429.61,288.81z"/>
	
		<linearGradient id="SVGID_00000119085641514721981430000004157157704479797164_" gradientUnits="userSpaceOnUse" x1="375.8017" y1="339.5165" x2="514.0017" y2="322.3165">
		<stop  offset="0" style="stop-color:#216F3D"/>
		<stop  offset="0.2147" style="stop-color:#357E41"/>
		<stop  offset="0.652" style="stop-color:#69A54C"/>
		<stop  offset="1" style="stop-color:#96C755"/>
	</linearGradient>
	<path fill="url(#SVGID_00000119085641514721981430000004157157704479797164_)" d="M509.73,285.81h-20.75
		c-5.83,0.81-11.27,1.82-16.36,3c-22.56,5.23-38.36,13.92-51.34,24.6c-21.07,17.33-29.87,35.47-37.07,51.17
		c-1.3,2.83-2.46,5.9-3.62,9.17c10.37-2.07,20.7-2.17,31.12-2.17c0,0,11.9,0,18,0s29.9,0.2,50.2-16.1
		c19.63-15.76,30.94-34.33,32.93-66.35C512.95,287.33,511.53,285.81,509.73,285.81z"/>
	
		<linearGradient id="SVGID_00000119805706680268380460000006077148971347269763_" gradientUnits="userSpaceOnUse" x1="296.2551" y1="434.8777" x2="312.5218" y2="455.9444">
		<stop  offset="0" style="stop-color:#185432"/>
		<stop  offset="0.5982" style="stop-color:#23683D"/>
		<stop  offset="1" style="stop-color:#2C7846"/>
	</linearGradient>
	<path fill="url(#SVGID_00000119805706680268380460000006077148971347269763_)" d="M307.41,432.48
		c-9.6,10.8-25.89,28.65-52.53,40.27c-1.63,0.71-16.07,7.83-40.8,9.03c-4.59,0-9.14-0.22-13.64-0.63
		c11.09,1.99,28.31,3.15,52.71-0.27c48.53-6.8,78.4-28,99.6-52.8c17.38-20.33,22.57-39.45,27.85-54.33
		c-8.24,1.65-16.51,4.54-24.88,9.63C336.81,394.88,319.4,418.99,307.41,432.48z"/>
</g>
</svg>
